PathFileType	4	(X/Y/Z)	S01_0001_Static_markers.trc
DataRate	CameraRate	NumFrames	NumMarkers	Units	OrigDataRate	OrigDataStartFrame	OrigNumFrames
250.000000	250.000000	4	62	mm	250.000000	63	102
Frame#	Time	HEAD_ANT			R_HEAD			L_HEAD			C7			R_BACK			L_BACK			STERNUM			R_ACROMION			R_HUM_PROX			R_HUM_ANT			R_HUM_POST			R_ELBOW_LAT			R_ELBOW_MED			R_FOREARM			R_WIRST_LAT			R_WRITS_MED			R_HAND			L_ACROMION			L_HUM_PROX			L_HUM_ANT			L_HUM_POST			L_ELBOW_LAT			L_ELBOW_MED			L_FOREARM			L_WRIST_LAT			L_WIRST_MED			L_HAND			R_ILIAC			SACRUM			L_ILIAC			R_GTROCH			R_THIGH__1			R_THIGH_2			R_THIGH_3			R_THIGH_4			R_KNEE_LAT			R_KNEE_MED			R_SHANK_1			R_SHANK_2			R_SHANK_3			R_SHANK_4			R_ANKLE_LAT			R_ANKLE_MED			R_HEEL			R_FOOT_LAT			R_FOOT_MED			L_GTROCH			L_THIGH_1			L_THIGH_2			L_THIGH_3			L_THIGH_4			L_KNEE_LAT			L_KNEE_MED			L_SHANK_1			L_SHANK_2			L_SHANK_3			L_SHANK_4			L_ANKLE_LAT			L_ANKLE_MED			L_HEEL			L_FOOT_LAT			L_FOOT_MED			
		X1	Y1	Z1	X2	Y2	Z2	X3	Y3	Z3	X4	Y4	Z4	X5	Y5	Z5	X6	Y6	Z6	X7	Y7	Z7	X8	Y8	Z8	X9	Y9	Z9	X10	Y10	Z10	X11	Y11	Z11	X12	Y12	Z12	X13	Y13	Z13	X14	Y14	Z14	X15	Y15	Z15	X16	Y16	Z16	X17	Y17	Z17	X18	Y18	Z18	X19	Y19	Z19	X20	Y20	Z20	X21	Y21	Z21	X22	Y22	Z22	X23	Y23	Z23	X24	Y24	Z24	X25	Y25	Z25	X26	Y26	Z26	X27	Y27	Z27	X28	Y28	Z28	X29	Y29	Z29	X30	Y30	Z30	X31	Y31	Z31	X32	Y32	Z32	X33	Y33	Z33	X34	Y34	Z34	X35	Y35	Z35	X36	Y36	Z36	X37	Y37	Z37	X38	Y38	Z38	X39	Y39	Z39	X40	Y40	Z40	X41	Y41	Z41	X42	Y42	Z42	X43	Y43	Z43	X44	Y44	Z44	X45	Y45	Z45	X46	Y46	Z46	X47	Y47	Z47	X48	Y48	Z48	X49	Y49	Z49	X50	Y50	Z50	X51	Y51	Z51	X52	Y52	Z52	X53	Y53	Z53	X54	Y54	Z54	X55	Y55	Z55	X56	Y56	Z56	X57	Y57	Z57	X58	Y58	Z58	X59	Y59	Z59	X60	Y60	Z60	X61	Y61	Z61	X62	Y62	Z62	

64	0.252	436.6969909667969	449.1701049804688	1741.170166015625	507.4522094726562	381.352294921875	1699.775512695312	361.1792297363281	393.75341796875	1700.982299804688	424.3041381835938	242.2164001464844	1533.747192382812	492.9306030273438	170.0472106933594	1336.660400390625	352.6389770507812	173.7035369873047	1337.448120117188	437.625244140625	420.8758239746094	1374.167602539062	596.5387573242188	308.1952819824219	1493.803588867188	703.234619140625	264.381103515625	1351.820678710938	734.5303344726562	329.0773010253906	1274.866943359375	721.223876953125	207.2251434326172	1267.258056640625	758.427734375	258.1120910644531	1171.083251953125	678.7511596679688	253.5216369628906	1149.361938476562	828.2160034179688	351.3730773925781	998.874755859375	821.1098022460938	398.8267211914062	932.5955200195312	833.9866943359375	322.7721557617188	907.8571166992188	881.204833984375	386.2388916015625	850.48974609375	263.1278381347656	322.1537780761719	1492.448120117188	162.5110321044922	292.1290283203125	1332.5703125	147.3931121826172	357.5040588378906	1256.106079101562	141.6925964355469	235.2372283935547	1253.697509765625	114.4458465576172	286.7298583984375	1155.452758789062	182.8517608642578	255.699951171875	1146.100219726562	68.54103851318359	389.7998657226562	984.89501953125	95.21658325195312	438.240966796875	918.6322631835938	54.75498199462891	371.3088684082031	903.7421264648438	32.67787170410156	442.947998046875	847.4833374023438	603.9805908203125	321.9653625488281	1082.011596679688	433.2807312011719	189.779052734375	1061.789306640625	258.2203979492188	319.0030212402344	1075.646118164062	612.9821166992188	265.229736328125	942.1724853515625	616.5936279296875	273.1535949707031	664.0944213867188	622.3767700195312	330.874267578125	674.351318359375	595.3753662109375	326.3271179199219	570.4357299804688	600.9891967773438	262.4682312011719	583.4708251953125	588.9691162109375	300.0417785644531	508.8288269042969	477.8433227539062	302.6455688476562	506.6216735839844	621.5194702148438	239.3560333251953	353.4479064941406	607.2548217773438	295.0811157226562	332.0912780761719	593.4053344726562	292.1741638183594	246.6674652099609	602.8820190429688	227.9425506591797	253.0272216796875	581.505859375	253.0093841552734	65.99288940429688	495.9468078613281	275.1012878417969	80.829833984375	527.6832275390625	194.1999359130859	41.99272155761719	628.7999267578125	352.2640075683594	19.95674896240234	532.5066528320312	415.1108093261719	30.12947654724121	253.4121856689453	272.9833679199219	965.3012084960938	251.1870269775391	324.4744873046875	674.1996459960938	238.1666107177734	272.6324768066406	700.7847290039062	264.2115783691406	249.0987701416016	600.6641235351562	270.4420471191406	312.169921875	595.57568359375	282.4552307128906	269.8113098144531	513.9247436523438	389.9120178222656	273.6488037109375	501.5593872070312	255.3147430419922	249.9875640869141	338.9299621582031	257.6559753417969	192.7222747802734	318.0404663085938	267.9212036132812	192.2517547607422	231.1484222412109	269.3111572265625	256.7512817382812	236.6265563964844	276.4396667480469	217.314453125	69.19411468505859	361.1968383789062	243.5517883300781	79.49850463867188	329.2763061523438	160.9334411621094	41.22929382324219	233.7159576416016	328.0703430175781	19.23501014709473	335.75244140625	376.7760009765625	26.99201393127441	
65	0.256	436.5667419433594	449.055908203125	1741.2041015625	507.3634643554688	381.25830078125	1699.763061523438	361.093017578125	393.6732788085938	1700.96337890625	424.2696228027344	242.1431884765625	1533.7001953125	492.8699951171875	170.0428466796875	1336.638916015625	352.5953369140625	173.6865844726562	1337.438232421875	437.5681457519531	420.84423828125	1374.17529296875	596.4998779296875	308.1474304199219	1493.81396484375	703.17626953125	264.4001159667969	1351.81103515625	734.5170288085938	329.0585021972656	1274.879272460938	721.1707763671875	207.2449645996094	1267.225830078125	758.3839111328125	258.1202697753906	1171.081176757812	678.7255859375	253.5374603271484	1149.397827148438	828.19775390625	351.4662780761719	998.9194946289062	821.116455078125	398.9275207519531	932.6398315429688	833.959716796875	322.8191528320312	907.911865234375	881.1861572265625	386.3442993164062	850.51318359375	263.0674133300781	322.1260070800781	1492.446411132812	162.4468231201172	292.1263732910156	1332.566284179688	147.3867645263672	357.4782104492188	1256.086791992188	141.6504211425781	235.2666931152344	1253.694213867188	114.4044723510742	286.7920227050781	1155.418334960938	182.8144989013672	255.6810760498047	1146.093017578125	68.5191650390625	389.8145446777344	984.8945922851562	95.21990966796875	438.2901000976562	918.6513671875	54.74407577514648	371.3276672363281	903.7332153320312	32.65716934204102	442.9977722167969	847.4796142578125	603.9390258789062	322.0146179199219	1082.027465820312	433.2164916992188	189.8286590576172	1061.790405273438	258.0492858886719	319.4753723144531	1075.679321289062	612.978271484375	265.3164672851562	942.1819458007812	616.5660400390625	273.2022399902344	664.084716796875	622.3340454101562	330.917236328125	674.34033203125	595.3305053710938	326.3524780273438	570.421875	600.9470825195312	262.4692077636719	583.3716430664062	588.93115234375	300.1176452636719	508.8611145019531	477.8792419433594	302.6728820800781	506.6451416015625	621.4652709960938	239.3824005126953	353.4207153320312	607.2463989257812	295.0738830566406	332.0829467773438	593.4114379882812	292.1921997070312	246.7012786865234	602.8043823242188	227.9590454101562	252.9922943115234	581.5066528320312	253.0100402832031	65.99417877197266	495.9466247558594	275.1796569824219	80.82582855224609	527.6869506835938	194.2061157226562	42.00442886352539	628.7626342773438	352.3005676269531	19.96462821960449	532.52001953125	415.105712890625	30.11657905578613	253.3999176025391	273.0455627441406	965.28955078125	251.1553497314453	324.5334777832031	674.1943969726562	238.0959625244141	272.6920776367188	700.7869873046875	264.2054138183594	249.1117553710938	600.6396484375	270.4480590820312	312.2176513671875	595.5645751953125	282.4341735839844	269.7691345214844	513.90625	389.901123046875	273.6022338867188	501.5239868164062	255.2929992675781	249.9952697753906	338.8992004394531	257.6478881835938	192.7462463378906	318.0365600585938	267.8860473632812	192.2850036621094	231.1499938964844	269.2837524414062	256.74853515625	236.6446228027344	276.4171447753906	217.3188018798828	69.20136260986328	361.1969604492188	243.5507202148438	79.49192047119141	329.284423828125	160.9133758544922	41.23769378662109	233.7094116210938	328.1041870117188	19.23699188232422	335.7493896484375	376.8000183105469	26.99478721618652	
66	0.26	436.4675598144531	449.0020141601562	1741.22265625	507.2969970703125	381.2543334960938	1699.806518554688	360.9950256347656	393.569580078125	1700.96630859375	424.1924133300781	242.1295928955078	1533.71533203125	492.792724609375	169.9923095703125	1336.606689453125	352.5419006347656	173.6659088134766	1337.419189453125	437.546142578125	420.8345642089844	1374.181518554688	596.4382934570312	308.1098937988281	1493.807250976562	703.1240844726562	264.3807983398438	1351.81396484375	734.4893798828125	329.0516967773438	1274.894165039062	721.0928955078125	207.2252044677734	1267.236938476562	758.36865234375	258.2120666503906	1171.075439453125	678.6834716796875	253.6283264160156	1149.369140625	828.1657104492188	351.5276489257812	998.9426879882812	821.0623779296875	398.9901428222656	932.67919921875	833.9398803710938	323.0097961425781	907.8115234375	881.199462890625	386.4778442382812	850.5928955078125	263.0016784667969	322.080322265625	1492.451416015625	162.4113616943359	292.1234741210938	1332.546508789062	147.326904296875	357.5234375	1256.082885742188	141.5914764404297	235.2650604248047	1253.671264648438	114.3404312133789	286.8418273925781	1155.402709960938	182.7586975097656	255.7241821289062	1146.076416015625	68.49249267578125	389.8713073730469	984.8690795898438	95.16403961181641	438.3528137207031	918.6245727539062	54.70420837402344	371.3548889160156	903.7213134765625	32.64551544189453	443.1144714355469	847.4796142578125	603.8826904296875	322.0103454589844	1082.033813476562	433.1882629394531	189.8600158691406	1061.770385742188	257.9983215332031	319.5215759277344	1075.6416015625	612.9502563476562	265.3327026367188	942.192138671875	616.548828125	273.2486572265625	664.0927124023438	622.2914428710938	330.9493408203125	674.3430786132812	595.2655639648438	326.4484558105469	570.4334716796875	600.898681640625	262.5100402832031	583.396240234375	588.9179077148438	300.1589965820312	508.8521118164062	477.8555908203125	302.5838317871094	506.64599609375	621.4765625	239.3673706054688	353.4302978515625	607.24072265625	295.1200561523438	332.08837890625	593.4110107421875	292.2279357910156	246.6835174560547	602.8110961914062	227.9539184570312	253.0150604248047	581.5067138671875	253.0193939208984	66.01017761230469	495.9211120605469	275.1497192382812	80.82282257080078	527.6591796875	194.2090759277344	41.99071502685547	628.7703247070312	352.2623901367188	19.95949745178223	532.5119018554688	415.100341796875	30.12567329406738	253.3677520751953	273.0756225585938	965.2806396484375	251.1455230712891	324.5813903808594	674.1555786132812	238.0328216552734	272.7361145019531	700.7631225585938	264.1841735839844	249.1586303710938	600.6405639648438	270.4290466308594	312.2686157226562	595.55810546875	282.398193359375	269.8982238769531	513.9365844726562	389.8404846191406	273.7081604003906	501.5541076660156	255.2777709960938	250.0155639648438	338.910888671875	257.6299133300781	192.7694091796875	318.0245361328125	267.8725280761719	192.3034973144531	231.1269683837891	269.2605285644531	256.7757873535156	236.6235198974609	276.4490661621094	217.3591766357422	69.19488525390625	361.2043762207031	243.5807342529297	79.50634765625	329.2781066894531	160.9576263427734	41.25480651855469	233.7081604003906	328.1071472167969	19.23698616027832	335.7486572265625	376.7940979003906	26.9930591583252	
67	0.264	436.2963562011719	448.9117736816406	1741.248291015625	507.2153930664062	381.2026062011719	1699.816650390625	360.89697265625	393.5263061523438	1700.94775390625	424.1557922363281	242.0524291992188	1533.686767578125	492.7434387207031	169.9933319091797	1336.575439453125	352.5079040527344	173.6572570800781	1337.421752929688	437.4678344726562	420.8268737792969	1374.231811523438	596.379638671875	308.0678100585938	1493.828369140625	703.0692749023438	264.33447265625	1351.817749023438	734.4511108398438	329.023193359375	1274.916259765625	721.0343017578125	207.1862487792969	1267.232543945312	758.3179321289062	258.2008361816406	1171.065673828125	678.6636962890625	253.5858306884766	1149.3662109375	828.1275024414062	351.6038208007812	998.9686279296875	821.053955078125	399.1003723144531	932.7217407226562	833.918212890625	323.1052856445312	907.8504638671875	881.1714477539062	386.5565795898438	850.6422729492188	262.9593505859375	322.0402526855469	1492.430053710938	162.3433532714844	292.1446838378906	1332.548950195312	147.2697143554688	357.5232849121094	1256.087280273438	141.5263366699219	235.2733917236328	1253.67578125	114.3244171142578	286.8406066894531	1155.411010742188	182.71533203125	255.748779296875	1146.049682617188	68.46238708496094	389.890869140625	984.8831176757812	95.15444183349609	438.364990234375	918.6382446289062	54.67825317382812	371.39501953125	903.7323608398438	32.58979415893555	443.1759948730469	847.4660034179688	603.8302612304688	321.9938049316406	1082.049194335938	433.1535034179688	189.9080352783203	1061.760009765625	257.949951171875	319.5925598144531	1075.6611328125	612.9339599609375	265.37255859375	942.2008056640625	616.508544921875	273.301025390625	664.0908813476562	622.2754516601562	330.9959716796875	674.3240966796875	595.23095703125	326.4538269042969	570.42041015625	600.8717041015625	262.5281066894531	583.3786010742188	588.898193359375	300.2121887207031	508.8564758300781	477.7963562011719	302.6589965820312	506.5853271484375	621.4966430664062	239.427978515625	353.4649047851562	607.2341918945312	295.1081237792969	332.0757446289062	593.4091186523438	292.2213439941406	246.689697265625	602.8009643554688	227.9630889892578	253.0277252197266	581.497802734375	253.0205993652344	66.02192687988281	495.9309387207031	275.1752624511719	80.84232330322266	527.662353515625	194.2302551269531	41.99478149414062	628.771240234375	352.267578125	19.95752143859863	532.4840087890625	415.1041259765625	30.13091850280762	253.3338775634766	273.112548828125	965.2767333984375	251.1154937744141	324.5950317382812	674.1826782226562	238.0073089599609	272.7678833007812	700.7825927734375	264.1154174804688	249.2450561523438	600.6564331054688	270.3758850097656	312.3354797363281	595.6065673828125	282.3985290527344	269.8703002929688	513.911865234375	389.8150634765625	273.7154846191406	501.5657653808594	255.2958679199219	250.0584716796875	338.8809814453125	257.62548828125	192.7893676757812	318.0429077148438	267.8435363769531	192.3181915283203	231.1547698974609	269.3008422851562	256.8288269042969	236.5985412597656	276.4227294921875	217.3370666503906	69.18381500244141	361.2132568359375	243.5817565917969	79.49527740478516	329.2765502929688	160.9261169433594	41.25429534912109	233.7141723632812	328.0708312988281	19.26977157592773	335.7547912597656	376.7836608886719	27.00380897521973	
